<svg width="1055" height="917" viewBox="0 0 1055 917" fill="none" xmlns="http://www.w3.org/2000/svg">
<path d="M643.681 826.637C629.844 838.85 613.957 834.536 608.198 817.001L384.83 136.95C379.071 119.416 385.62 95.3003 399.457 83.0874C413.295 70.8744 429.182 75.1886 434.941 92.7234L658.308 772.774C664.068 790.309 657.519 814.424 643.681 826.637Z" fill="#323232"/>
<path d="M269.363 915.88C244.666 913.094 234.624 893.332 246.932 871.741L724.283 34.3768C736.592 12.7858 766.59 -2.45809 791.286 0.328631C815.982 3.11535 826.024 22.8774 813.716 44.4684L336.365 881.832C324.057 903.423 294.059 918.667 269.363 915.88Z" fill="#323232"/>
<path d="M1052.69 499.615C1060.63 523.167 1046.98 540.634 1022.2 538.629L61.479 460.856C36.7072 458.851 10.1929 438.133 2.25773 414.58C-5.67745 391.028 7.97135 373.561 32.7432 375.567L993.469 453.34C1018.24 455.345 1044.75 476.063 1052.69 499.615Z" fill="#323232"/>
</svg>
